<svg width="420" height="420" viewBox="0 0 420 420" fill="none" xmlns="http://www.w3.org/2000/svg">
<path d="M358.643 62.172C362.243 60.096 382.499 48.588 390.335 55.644C391.331 56.532 393.359 58.836 392.219 74.94C390.707 96.54 389.951 107.256 383.207 115.044C377.207 122.052 370.775 122.916 367.367 131.976C366.683 133.788 366.023 136.776 365.771 143.1C365.015 162.3 377.843 167.364 375.467 179.196C373.619 188.472 367.979 195.324 361.859 201.492C356.195 207.204 350.423 211.092 350.795 216.792C351.047 220.644 354.011 223.284 354.947 224.208C376.655 245.496 379.511 274.848 369.131 288.468C357.371 303.9 283.115 300.012 283.115 300.012C264.059 285.012 224.579 257.868 262.115 218.592C265.967 214.548 273.779 205.884 270.791 194.976C263.687 169.092 267.959 162.924 275.243 147.372C280.655 135.84 292.535 124.884 305.375 119.868C312.851 116.952 316.067 117.072 319.427 115.38C320.7 114.597 321.922 113.735 323.087 112.8C330.467 106.704 330.431 95.22 333.395 86.772C337.895 73.98 349.595 67.32 358.643 62.172Z" fill="#E5ECF8"/>
<path d="M366.9 86.1958C314.76 159.144 297.96 228.888 312.084 299.328" stroke="white" stroke-width="2" stroke-miterlimit="10"/>
<path d="M70.6441 3.30011C69.9758 3.15349 69.278 3.22882 68.6565 3.51468C68.035 3.80055 67.5236 4.28134 67.2001 4.88411C59.7361 18.5281 21.4201 94.1161 77.9161 112.884C83.4481 114.72 98.6401 126.156 82.5721 133.944C78.6361 135.852 -24.0839 161.712 86.7361 235.944C88.2933 236.968 89.5354 238.405 90.3237 240.093C91.1119 241.782 91.4153 243.657 91.2001 245.508C87.6001 271.788 -6.08393 268.044 128.4 420H189.348C254.784 325.128 288.948 247.896 272.34 227.508C265.2 218.724 252.768 213.6 233.52 213.912C218.88 214.116 193.788 232.824 202.824 197.496C206.424 183.168 263.4 64.1281 164.304 111.792C150.384 118.488 137.712 104.928 146.112 92.0761C184.188 33.8281 86.9881 7.29611 70.6441 3.30011Z" fill="#7C99E2"/>
<path opacity="0.3" d="M82.3672 42.312C91.8352 66.732 189.311 182.82 153.839 419.508" stroke="white" stroke-width="2" stroke-miterlimit="10"/>
<path d="M85.9688 336.144H176.881C179.092 336.144 181.282 335.708 183.324 334.86C185.366 334.012 187.221 332.769 188.781 331.202C190.342 329.636 191.578 327.777 192.419 325.732C193.26 323.686 193.689 321.495 193.681 319.284V294C193.678 289.54 191.909 285.262 188.76 282.103C185.612 278.944 181.341 277.159 176.881 277.14H120.001" fill="white"/>
<path d="M85.9688 336.144H176.881C179.092 336.144 181.282 335.708 183.324 334.86C185.366 334.012 187.221 332.769 188.781 331.202C190.342 329.636 191.578 327.777 192.419 325.732C193.26 323.686 193.689 321.495 193.681 319.284V294C193.678 289.54 191.909 285.262 188.76 282.103C185.612 278.944 181.341 277.159 176.881 277.14H120.001" stroke="#252733" stroke-width="2" stroke-miterlimit="10"/>
<path d="M85.1998 336L48.7198 314.928C46.7972 313.827 45.1114 312.356 43.7597 310.6C42.4079 308.844 41.4168 306.838 40.8435 304.698C40.2702 302.557 40.126 300.325 40.4192 298.128C40.7124 295.932 41.4372 293.815 42.5518 291.9L88.9198 211.584L76.5478 204.444C75.7375 203.978 75.0811 203.285 74.6591 202.45C74.2372 201.616 74.0681 200.677 74.1726 199.748C74.2771 198.819 74.6507 197.94 75.2474 197.22C75.8442 196.501 76.6381 195.971 77.5318 195.696L129.516 179.688C131.363 179.118 133.308 178.935 135.228 179.151C137.149 179.367 139.005 179.978 140.679 180.944C142.353 181.911 143.809 183.213 144.957 184.768C146.104 186.324 146.918 188.099 147.348 189.984L159.48 243C159.689 243.911 159.628 244.864 159.304 245.741C158.98 246.618 158.407 247.381 157.655 247.937C156.903 248.492 156.005 248.816 155.071 248.869C154.138 248.921 153.209 248.7 152.4 248.232L140.028 241.032L119.304 276.912L85.5838 335.328V336H85.1998Z" fill="white" stroke="#252733" stroke-width="2" stroke-miterlimit="10"/>
<path d="M187.597 58.3081L148.801 125.604C147.687 127.52 146.963 129.637 146.67 131.834C146.378 134.031 146.523 136.264 147.098 138.404C147.672 140.545 148.664 142.551 150.017 144.306C151.37 146.061 153.057 147.532 154.981 148.632L176.869 161.268C178.784 162.383 180.901 163.108 183.097 163.401C185.293 163.694 187.526 163.55 189.666 162.976C191.807 162.403 193.813 161.412 195.568 160.06C197.324 158.709 198.795 157.023 199.897 155.1L221.725 117.324" fill="white"/>
<path d="M187.597 58.3081L148.801 125.604C147.687 127.52 146.963 129.637 146.67 131.834C146.378 134.031 146.523 136.264 147.098 138.404C147.672 140.545 148.664 142.551 150.017 144.306C151.37 146.061 153.057 147.532 154.981 148.632L176.869 161.268C178.784 162.383 180.901 163.108 183.097 163.401C185.293 163.694 187.526 163.55 189.666 162.976C191.807 162.403 193.813 161.412 195.568 160.06C197.324 158.709 198.795 157.023 199.897 155.1L221.725 117.324" stroke="#252733" stroke-width="2" stroke-miterlimit="10"/>
<path d="M188.279 58.212L224.783 37.2C228.657 34.9644 233.26 34.3583 237.58 35.5149C241.9 36.6715 245.585 39.4961 247.823 43.368L294.191 123.6L306.551 116.4C307.36 115.933 308.287 115.713 309.219 115.765C310.151 115.817 311.048 116.14 311.799 116.694C312.55 117.248 313.124 118.009 313.449 118.884C313.775 119.759 313.838 120.71 313.631 121.62L301.511 174.648C301.08 176.532 300.265 178.306 299.117 179.861C297.969 181.416 296.513 182.717 294.84 183.683C293.166 184.649 291.311 185.26 289.391 185.477C287.471 185.694 285.526 185.513 283.679 184.944L221.171 165.684L243.083 153.048L222.359 117.24L188.639 58.8L188.111 58.476L188.279 58.212Z" fill="white" stroke="#252733" stroke-width="2" stroke-miterlimit="10"/>
<path d="M219.6 152.4V138.48C219.603 136.444 220.413 134.492 221.853 133.053C223.292 131.613 225.244 130.803 227.28 130.8H250.32C252.356 130.803 254.307 131.613 255.747 133.053C257.186 134.492 257.996 136.444 258 138.48V152.4H219.6Z" fill="#252733"/>
<path d="M284.879 298.26H249.119V150.24H280.079C282.625 150.24 285.067 151.252 286.867 153.052C288.668 154.852 289.679 157.294 289.679 159.84V293.46C289.679 294.733 289.173 295.954 288.273 296.854C287.373 297.755 286.152 298.26 284.879 298.26Z" fill="#252733"/>
<path d="M200.4 152.4V139.68C200.404 137.644 201.214 135.693 202.653 134.253C204.093 132.813 206.044 132.003 208.08 132H231.12C233.156 132.003 235.108 132.813 236.547 134.253C237.987 135.693 238.797 137.644 238.8 139.68V152.4" fill="white"/>
<path d="M200.4 152.4V139.68C200.404 137.644 201.214 135.693 202.653 134.253C204.093 132.813 206.044 132.003 208.08 132H231.12C233.156 132.003 235.108 132.813 236.547 134.253C237.987 135.693 238.797 137.644 238.8 139.68V152.4" stroke="#252733" stroke-width="2" stroke-miterlimit="10"/>
<path d="M179.52 151.44H252.48C255.026 151.44 257.468 152.451 259.268 154.252C261.068 156.052 262.08 158.494 262.08 161.04V292.56C262.08 293.833 261.574 295.054 260.674 295.954C259.774 296.854 258.553 297.36 257.28 297.36H179.52C176.974 297.36 174.532 296.349 172.732 294.548C170.931 292.748 169.92 290.306 169.92 287.76V161.04C169.92 158.494 170.931 156.052 172.732 154.252C174.532 152.451 176.974 151.44 179.52 151.44Z" fill="white" stroke="#252733" stroke-width="2" stroke-miterlimit="10"/>
<path d="M262.8 188.4H170.4V190.8H262.8V188.4Z" fill="#252733"/>
<path d="M381.708 276.744L342.852 209.448C341.75 207.525 340.279 205.839 338.523 204.488C336.768 203.136 334.762 202.145 332.621 201.572C330.481 200.998 328.248 200.854 326.052 201.147C323.856 201.44 321.739 202.165 319.824 203.28L297.924 215.928C294.055 218.166 291.233 221.849 290.076 226.166C288.92 230.483 289.524 235.083 291.756 238.956L313.56 276.744" fill="white"/>
<path d="M381.708 276.744L342.852 209.448C341.75 207.525 340.279 205.839 338.523 204.488C336.768 203.136 334.762 202.145 332.621 201.572C330.481 200.998 328.248 200.854 326.052 201.147C323.856 201.44 321.739 202.165 319.824 203.28L297.924 215.928C294.055 218.166 291.233 221.849 290.076 226.166C288.92 230.483 289.524 235.083 291.756 238.956L313.56 276.744" stroke="#252733" stroke-width="2" stroke-miterlimit="10"/>
<path d="M382.116 277.98V320.124C382.124 322.34 381.693 324.536 380.849 326.586C380.004 328.635 378.763 330.497 377.195 332.064C375.628 333.631 373.766 334.872 371.717 335.717C369.668 336.561 367.472 336.992 365.256 336.984H283.08V351.276C283.079 352.21 282.806 353.123 282.294 353.904C281.783 354.685 281.054 355.3 280.198 355.673C279.343 356.046 278.396 356.161 277.476 356.005C276.555 355.849 275.701 355.427 275.016 354.792L235.2 317.772C233.784 316.457 232.654 314.864 231.882 313.092C231.11 311.321 230.711 309.409 230.711 307.476C230.711 305.544 231.11 303.632 231.882 301.86C232.654 300.089 233.784 298.495 235.2 297.18L275.052 260.172C275.737 259.537 276.591 259.116 277.512 258.959C278.432 258.803 279.379 258.918 280.234 259.292C281.09 259.665 281.819 260.279 282.33 261.06C282.842 261.841 283.115 262.755 283.116 263.688V277.98H381.432L381.984 277.68L382.116 277.98Z" fill="white" stroke="#252733" stroke-width="2" stroke-miterlimit="10"/>
<path d="M232.729 238.476L219.385 267.048C219.129 267.59 218.697 268.029 218.159 268.293C217.621 268.557 217.01 268.63 216.425 268.5C215.84 268.37 215.317 268.045 214.941 267.579C214.565 267.112 214.359 266.531 214.357 265.932V246.996H201.673C201.228 246.997 200.791 246.886 200.4 246.673C200.01 246.46 199.68 246.152 199.441 245.778C199.201 245.403 199.06 244.974 199.031 244.531C199.002 244.087 199.085 243.643 199.273 243.24L212.617 214.668C212.872 214.126 213.305 213.687 213.842 213.424C214.38 213.16 214.992 213.087 215.577 213.217C216.162 213.346 216.685 213.671 217.061 214.138C217.437 214.605 217.643 215.185 217.645 215.784V234.72H230.329C230.773 234.719 231.211 234.83 231.601 235.043C231.992 235.256 232.322 235.564 232.561 235.939C232.8 236.313 232.941 236.742 232.971 237.186C233 237.63 232.917 238.073 232.729 238.476Z" fill="#19B562"/>
</svg>
